<mxfile host="app.diagrams.net" modified="2023-11-26T01:56:28.272Z" agent="Mozilla/5.0 (Windows NT 10.0; Win64; x64) AppleWebKit/537.36 (KHTML, like Gecko) Chrome/119.0.0.0 Safari/537.36" etag="KBWemxxWulXtsJw37ASj" version="22.1.4" type="github" pages="4">
  <diagram name="Clases" id="c4acf3e9-155e-7222-9cf6-157b1a14988f">
    <mxGraphModel dx="974" dy="410" grid="1" gridSize="10" guides="1" tooltips="1" connect="1" arrows="1" fold="1" page="1" pageScale="1" pageWidth="850" pageHeight="1100" background="none" math="0" shadow="0">
      <root>
        <mxCell id="0" />
        <mxCell id="1" parent="0" />
        <mxCell id="17acba5748e5396b-20" value="&lt;b&gt;User&lt;/b&gt;" style="swimlane;html=1;fontStyle=0;childLayout=stackLayout;horizontal=1;startSize=26;fillColor=none;horizontalStack=0;resizeParent=1;resizeLast=0;collapsible=1;marginBottom=0;swimlaneFillColor=#ffffff;rounded=0;shadow=0;comic=0;labelBackgroundColor=none;strokeWidth=1;fontFamily=Verdana;fontSize=10;align=center;" parent="1" vertex="1">
          <mxGeometry x="415" y="80" width="160" height="170" as="geometry" />
        </mxCell>
        <mxCell id="17acba5748e5396b-21" value="+ id_User: int" style="text;html=1;strokeColor=none;fillColor=none;align=left;verticalAlign=top;spacingLeft=4;spacingRight=4;whiteSpace=wrap;overflow=hidden;rotatable=0;points=[[0,0.5],[1,0.5]];portConstraint=eastwest;" parent="17acba5748e5396b-20" vertex="1">
          <mxGeometry y="26" width="160" height="20" as="geometry" />
        </mxCell>
        <mxCell id="17acba5748e5396b-24" value="+ name_User: string" style="text;html=1;strokeColor=none;fillColor=none;align=left;verticalAlign=top;spacingLeft=4;spacingRight=4;whiteSpace=wrap;overflow=hidden;rotatable=0;points=[[0,0.5],[1,0.5]];portConstraint=eastwest;" parent="17acba5748e5396b-20" vertex="1">
          <mxGeometry y="46" width="160" height="16" as="geometry" />
        </mxCell>
        <mxCell id="5G0Xq2VFd4OqwOVEKjT3-2" value="+ email: string" style="text;strokeColor=none;fillColor=none;align=left;verticalAlign=top;spacingLeft=4;spacingRight=4;overflow=hidden;rotatable=0;points=[[0,0.5],[1,0.5]];portConstraint=eastwest;whiteSpace=wrap;html=1;" vertex="1" parent="17acba5748e5396b-20">
          <mxGeometry y="62" width="160" height="20" as="geometry" />
        </mxCell>
        <mxCell id="17acba5748e5396b-26" value="+ phone_Number: int" style="text;html=1;strokeColor=none;fillColor=none;align=left;verticalAlign=top;spacingLeft=4;spacingRight=4;whiteSpace=wrap;overflow=hidden;rotatable=0;points=[[0,0.5],[1,0.5]];portConstraint=eastwest;" parent="17acba5748e5396b-20" vertex="1">
          <mxGeometry y="82" width="160" height="22" as="geometry" />
        </mxCell>
        <mxCell id="5G0Xq2VFd4OqwOVEKjT3-27" value="" style="line;strokeWidth=1;fillColor=none;align=left;verticalAlign=middle;spacingTop=-1;spacingLeft=3;spacingRight=3;rotatable=0;labelPosition=right;points=[];portConstraint=eastwest;strokeColor=inherit;" vertex="1" parent="17acba5748e5396b-20">
          <mxGeometry y="104" width="160" height="8" as="geometry" />
        </mxCell>
        <mxCell id="5G0Xq2VFd4OqwOVEKjT3-28" value="+ verifyLogin(): bool" style="text;strokeColor=none;fillColor=none;align=left;verticalAlign=top;spacingLeft=4;spacingRight=4;overflow=hidden;rotatable=0;points=[[0,0.5],[1,0.5]];portConstraint=eastwest;whiteSpace=wrap;html=1;" vertex="1" parent="17acba5748e5396b-20">
          <mxGeometry y="112" width="160" height="18" as="geometry" />
        </mxCell>
        <mxCell id="5G0Xq2VFd4OqwOVEKjT3-31" value="+ updateUser()" style="text;strokeColor=none;fillColor=none;align=left;verticalAlign=top;spacingLeft=4;spacingRight=4;overflow=hidden;rotatable=0;points=[[0,0.5],[1,0.5]];portConstraint=eastwest;whiteSpace=wrap;html=1;" vertex="1" parent="17acba5748e5396b-20">
          <mxGeometry y="130" width="160" height="20" as="geometry" />
        </mxCell>
        <mxCell id="17acba5748e5396b-30" value="&lt;b&gt;Admin&lt;/b&gt;" style="swimlane;html=1;fontStyle=0;childLayout=stackLayout;horizontal=1;startSize=26;fillColor=none;horizontalStack=0;resizeParent=1;resizeLast=0;collapsible=1;marginBottom=0;swimlaneFillColor=#ffffff;rounded=0;shadow=0;comic=0;labelBackgroundColor=none;strokeWidth=1;fontFamily=Verdana;fontSize=10;align=center;" parent="1" vertex="1">
          <mxGeometry x="265" y="330" width="160" height="114" as="geometry" />
        </mxCell>
        <mxCell id="5G0Xq2VFd4OqwOVEKjT3-32" value="" style="line;strokeWidth=1;fillColor=none;align=left;verticalAlign=middle;spacingTop=-1;spacingLeft=3;spacingRight=3;rotatable=0;labelPosition=right;points=[];portConstraint=eastwest;strokeColor=inherit;" vertex="1" parent="17acba5748e5396b-30">
          <mxGeometry y="26" width="160" height="8" as="geometry" />
        </mxCell>
        <mxCell id="5G0Xq2VFd4OqwOVEKjT3-33" value="+ updateCatalog()" style="text;strokeColor=none;fillColor=none;align=left;verticalAlign=top;spacingLeft=4;spacingRight=4;overflow=hidden;rotatable=0;points=[[0,0.5],[1,0.5]];portConstraint=eastwest;whiteSpace=wrap;html=1;" vertex="1" parent="17acba5748e5396b-30">
          <mxGeometry y="34" width="160" height="20" as="geometry" />
        </mxCell>
        <mxCell id="07Zuo8NHtY_acnsxnfuI-1" value="+ seeOrders()" style="text;strokeColor=none;fillColor=none;align=left;verticalAlign=top;spacingLeft=4;spacingRight=4;overflow=hidden;rotatable=0;points=[[0,0.5],[1,0.5]];portConstraint=eastwest;whiteSpace=wrap;html=1;" vertex="1" parent="17acba5748e5396b-30">
          <mxGeometry y="54" width="160" height="20" as="geometry" />
        </mxCell>
        <mxCell id="07Zuo8NHtY_acnsxnfuI-2" value="+ manageOrders()" style="text;strokeColor=none;fillColor=none;align=left;verticalAlign=top;spacingLeft=4;spacingRight=4;overflow=hidden;rotatable=0;points=[[0,0.5],[1,0.5]];portConstraint=eastwest;whiteSpace=wrap;html=1;" vertex="1" parent="17acba5748e5396b-30">
          <mxGeometry y="74" width="160" height="20" as="geometry" />
        </mxCell>
        <mxCell id="07Zuo8NHtY_acnsxnfuI-6" value="+ seeInvoiceDetail()" style="text;strokeColor=none;fillColor=none;align=left;verticalAlign=top;spacingLeft=4;spacingRight=4;overflow=hidden;rotatable=0;points=[[0,0.5],[1,0.5]];portConstraint=eastwest;whiteSpace=wrap;html=1;" vertex="1" parent="17acba5748e5396b-30">
          <mxGeometry y="94" width="160" height="20" as="geometry" />
        </mxCell>
        <mxCell id="5d2195bd80daf111-26" style="edgeStyle=orthogonalEdgeStyle;rounded=0;html=1;dashed=1;labelBackgroundColor=none;startFill=0;endArrow=open;endFill=0;endSize=10;fontFamily=Verdana;fontSize=10;exitX=1.016;exitY=0.138;exitDx=0;exitDy=0;exitPerimeter=0;" parent="1" source="17acba5748e5396b-24" target="5d2195bd80daf111-17" edge="1">
          <mxGeometry relative="1" as="geometry">
            <Array as="points" />
            <mxPoint x="540" y="310" as="sourcePoint" />
          </mxGeometry>
        </mxCell>
        <mxCell id="5d2195bd80daf111-17" value="«interface»&lt;br&gt;&lt;b&gt;Inicio.hmtl&lt;/b&gt;" style="html=1;rounded=0;shadow=0;comic=0;labelBackgroundColor=none;strokeWidth=1;fontFamily=Verdana;fontSize=10;align=center;" parent="1" vertex="1">
          <mxGeometry x="720" y="225" width="110" height="50" as="geometry" />
        </mxCell>
        <mxCell id="5G0Xq2VFd4OqwOVEKjT3-3" value="1" style="endArrow=open;html=1;endSize=12;startArrow=diamondThin;startSize=14;startFill=1;edgeStyle=orthogonalEdgeStyle;align=left;verticalAlign=bottom;rounded=0;exitX=1;exitY=0.5;exitDx=0;exitDy=0;" edge="1" parent="1" source="NZuYqXE5Ns-u3yznZT5t-1">
          <mxGeometry x="-1" y="3" relative="1" as="geometry">
            <mxPoint x="247.56500000000005" y="186.91999999999996" as="sourcePoint" />
            <mxPoint x="410" y="160" as="targetPoint" />
          </mxGeometry>
        </mxCell>
        <mxCell id="5G0Xq2VFd4OqwOVEKjT3-4" value="&lt;b&gt;Client&lt;/b&gt;" style="swimlane;html=1;fontStyle=0;childLayout=stackLayout;horizontal=1;startSize=26;fillColor=none;horizontalStack=0;resizeParent=1;resizeLast=0;collapsible=1;marginBottom=0;swimlaneFillColor=#ffffff;rounded=0;shadow=0;comic=0;labelBackgroundColor=none;strokeWidth=1;fontFamily=Verdana;fontSize=10;align=center;" vertex="1" parent="1">
          <mxGeometry x="590" y="332" width="160" height="110" as="geometry" />
        </mxCell>
        <mxCell id="5G0Xq2VFd4OqwOVEKjT3-5" value="+ N_pedidos: int" style="text;html=1;strokeColor=none;fillColor=none;align=left;verticalAlign=top;spacingLeft=4;spacingRight=4;whiteSpace=wrap;overflow=hidden;rotatable=0;points=[[0,0.5],[1,0.5]];portConstraint=eastwest;" vertex="1" parent="5G0Xq2VFd4OqwOVEKjT3-4">
          <mxGeometry y="26" width="160" height="24" as="geometry" />
        </mxCell>
        <mxCell id="07Zuo8NHtY_acnsxnfuI-3" value="" style="line;strokeWidth=1;fillColor=none;align=left;verticalAlign=middle;spacingTop=-1;spacingLeft=3;spacingRight=3;rotatable=0;labelPosition=right;points=[];portConstraint=eastwest;strokeColor=inherit;" vertex="1" parent="5G0Xq2VFd4OqwOVEKjT3-4">
          <mxGeometry y="50" width="160" height="8" as="geometry" />
        </mxCell>
        <mxCell id="07Zuo8NHtY_acnsxnfuI-4" value="+ registerClient()" style="text;strokeColor=none;fillColor=none;align=left;verticalAlign=top;spacingLeft=4;spacingRight=4;overflow=hidden;rotatable=0;points=[[0,0.5],[1,0.5]];portConstraint=eastwest;whiteSpace=wrap;html=1;" vertex="1" parent="5G0Xq2VFd4OqwOVEKjT3-4">
          <mxGeometry y="58" width="160" height="20" as="geometry" />
        </mxCell>
        <mxCell id="07Zuo8NHtY_acnsxnfuI-5" value="+ login()" style="text;strokeColor=none;fillColor=none;align=left;verticalAlign=top;spacingLeft=4;spacingRight=4;overflow=hidden;rotatable=0;points=[[0,0.5],[1,0.5]];portConstraint=eastwest;whiteSpace=wrap;html=1;" vertex="1" parent="5G0Xq2VFd4OqwOVEKjT3-4">
          <mxGeometry y="78" width="160" height="20" as="geometry" />
        </mxCell>
        <mxCell id="5G0Xq2VFd4OqwOVEKjT3-7" value="" style="endArrow=block;endSize=16;endFill=0;html=1;rounded=0;exitX=0.468;exitY=0.004;exitDx=0;exitDy=0;exitPerimeter=0;" edge="1" parent="1" source="5G0Xq2VFd4OqwOVEKjT3-4">
          <mxGeometry width="160" relative="1" as="geometry">
            <mxPoint x="660" y="330" as="sourcePoint" />
            <mxPoint x="505" y="250" as="targetPoint" />
            <Array as="points">
              <mxPoint x="665" y="310" />
              <mxPoint x="505" y="310" />
            </Array>
          </mxGeometry>
        </mxCell>
        <mxCell id="5G0Xq2VFd4OqwOVEKjT3-8" value="&lt;b&gt;Products&lt;/b&gt;" style="swimlane;html=1;fontStyle=0;childLayout=stackLayout;horizontal=1;startSize=26;fillColor=none;horizontalStack=0;resizeParent=1;resizeLast=0;collapsible=1;marginBottom=0;swimlaneFillColor=#ffffff;rounded=0;shadow=0;comic=0;labelBackgroundColor=none;strokeWidth=1;fontFamily=Verdana;fontSize=10;align=center;" vertex="1" parent="1">
          <mxGeometry x="90" y="510" width="160" height="110" as="geometry" />
        </mxCell>
        <mxCell id="07Zuo8NHtY_acnsxnfuI-10" value="+ productName: string" style="text;strokeColor=none;fillColor=none;align=left;verticalAlign=top;spacingLeft=4;spacingRight=4;overflow=hidden;rotatable=0;points=[[0,0.5],[1,0.5]];portConstraint=eastwest;whiteSpace=wrap;html=1;" vertex="1" parent="5G0Xq2VFd4OqwOVEKjT3-8">
          <mxGeometry y="26" width="160" height="26" as="geometry" />
        </mxCell>
        <mxCell id="07Zuo8NHtY_acnsxnfuI-11" value="+ price: float" style="text;strokeColor=none;fillColor=none;align=left;verticalAlign=top;spacingLeft=4;spacingRight=4;overflow=hidden;rotatable=0;points=[[0,0.5],[1,0.5]];portConstraint=eastwest;whiteSpace=wrap;html=1;" vertex="1" parent="5G0Xq2VFd4OqwOVEKjT3-8">
          <mxGeometry y="52" width="160" height="26" as="geometry" />
        </mxCell>
        <mxCell id="07Zuo8NHtY_acnsxnfuI-12" value="+ stocks: int" style="text;strokeColor=none;fillColor=none;align=left;verticalAlign=top;spacingLeft=4;spacingRight=4;overflow=hidden;rotatable=0;points=[[0,0.5],[1,0.5]];portConstraint=eastwest;whiteSpace=wrap;html=1;" vertex="1" parent="5G0Xq2VFd4OqwOVEKjT3-8">
          <mxGeometry y="78" width="160" height="26" as="geometry" />
        </mxCell>
        <mxCell id="5G0Xq2VFd4OqwOVEKjT3-9" value="1" style="endArrow=open;html=1;endSize=12;startArrow=diamondThin;startSize=14;startFill=1;edgeStyle=orthogonalEdgeStyle;align=left;verticalAlign=bottom;rounded=0;exitX=0.575;exitY=1;exitDx=0;exitDy=0;exitPerimeter=0;entryX=0.5;entryY=0;entryDx=0;entryDy=0;" edge="1" parent="1" source="NZuYqXE5Ns-u3yznZT5t-1" target="5G0Xq2VFd4OqwOVEKjT3-8">
          <mxGeometry x="-0.8954" y="10" relative="1" as="geometry">
            <mxPoint x="180.04" y="224.99999999999994" as="sourcePoint" />
            <mxPoint x="190" y="480" as="targetPoint" />
            <Array as="points">
              <mxPoint x="180" y="460" />
              <mxPoint x="170" y="460" />
            </Array>
            <mxPoint as="offset" />
          </mxGeometry>
        </mxCell>
        <mxCell id="5G0Xq2VFd4OqwOVEKjT3-11" value="&lt;p style=&quot;margin:0px;margin-top:4px;text-align:center;&quot;&gt;&lt;b&gt;Orders&lt;/b&gt;&lt;/p&gt;&lt;hr size=&quot;1&quot;&gt;&lt;p style=&quot;margin:0px;margin-left:4px;&quot;&gt;+ totalPrice: float&lt;/p&gt;&lt;p style=&quot;margin:0px;margin-left:4px;&quot;&gt;+ deliveryDate: date&lt;/p&gt;&lt;p style=&quot;margin:0px;margin-left:4px;&quot;&gt;+ amountProduct: int&lt;/p&gt;" style="verticalAlign=top;align=left;overflow=fill;fontSize=12;fontFamily=Helvetica;html=1;whiteSpace=wrap;" vertex="1" parent="1">
          <mxGeometry x="370" y="510" width="140" height="110" as="geometry" />
        </mxCell>
        <mxCell id="5G0Xq2VFd4OqwOVEKjT3-13" value="Invoice" style="swimlane;fontStyle=1;align=center;verticalAlign=top;childLayout=stackLayout;horizontal=1;startSize=26;horizontalStack=0;resizeParent=1;resizeParentMax=0;resizeLast=0;collapsible=1;marginBottom=0;whiteSpace=wrap;html=1;" vertex="1" parent="1">
          <mxGeometry x="610" y="522" width="160" height="86" as="geometry" />
        </mxCell>
        <mxCell id="5G0Xq2VFd4OqwOVEKjT3-14" value="+ invoiceDate: date&lt;br&gt;" style="text;strokeColor=none;fillColor=none;align=left;verticalAlign=top;spacingLeft=4;spacingRight=4;overflow=hidden;rotatable=0;points=[[0,0.5],[1,0.5]];portConstraint=eastwest;whiteSpace=wrap;html=1;" vertex="1" parent="5G0Xq2VFd4OqwOVEKjT3-13">
          <mxGeometry y="26" width="160" height="26" as="geometry" />
        </mxCell>
        <mxCell id="5G0Xq2VFd4OqwOVEKjT3-15" value="" style="line;strokeWidth=1;fillColor=none;align=left;verticalAlign=middle;spacingTop=-1;spacingLeft=3;spacingRight=3;rotatable=0;labelPosition=right;points=[];portConstraint=eastwest;strokeColor=inherit;" vertex="1" parent="5G0Xq2VFd4OqwOVEKjT3-13">
          <mxGeometry y="52" width="160" height="8" as="geometry" />
        </mxCell>
        <mxCell id="5G0Xq2VFd4OqwOVEKjT3-16" value="+ method(type): type" style="text;strokeColor=none;fillColor=none;align=left;verticalAlign=top;spacingLeft=4;spacingRight=4;overflow=hidden;rotatable=0;points=[[0,0.5],[1,0.5]];portConstraint=eastwest;whiteSpace=wrap;html=1;" vertex="1" parent="5G0Xq2VFd4OqwOVEKjT3-13">
          <mxGeometry y="60" width="160" height="26" as="geometry" />
        </mxCell>
        <mxCell id="5G0Xq2VFd4OqwOVEKjT3-21" value="" style="endArrow=block;endSize=16;endFill=0;html=1;rounded=0;exitX=0.5;exitY=0;exitDx=0;exitDy=0;" edge="1" parent="1" source="17acba5748e5396b-30">
          <mxGeometry width="160" relative="1" as="geometry">
            <mxPoint x="390" y="330" as="sourcePoint" />
            <mxPoint x="470" y="250" as="targetPoint" />
            <Array as="points">
              <mxPoint x="345" y="310" />
              <mxPoint x="425" y="310" />
              <mxPoint x="470" y="310" />
            </Array>
          </mxGeometry>
        </mxCell>
        <mxCell id="5G0Xq2VFd4OqwOVEKjT3-22" value="1..*" style="endArrow=open;html=1;endSize=12;startArrow=diamondThin;startSize=14;startFill=1;edgeStyle=orthogonalEdgeStyle;align=left;verticalAlign=bottom;rounded=0;entryX=0.5;entryY=0;entryDx=0;entryDy=0;exitX=0;exitY=0.5;exitDx=0;exitDy=0;" edge="1" parent="1" source="07Zuo8NHtY_acnsxnfuI-5" target="5G0Xq2VFd4OqwOVEKjT3-11">
          <mxGeometry x="0.9167" relative="1" as="geometry">
            <mxPoint x="250" y="580" as="sourcePoint" />
            <mxPoint x="320" y="490" as="targetPoint" />
            <mxPoint as="offset" />
          </mxGeometry>
        </mxCell>
        <mxCell id="5G0Xq2VFd4OqwOVEKjT3-23" value="1" style="endArrow=open;html=1;endSize=12;startArrow=diamondThin;startSize=14;startFill=1;edgeStyle=orthogonalEdgeStyle;align=left;verticalAlign=bottom;rounded=0;entryX=0;entryY=0.5;entryDx=0;entryDy=0;exitX=1.009;exitY=0.465;exitDx=0;exitDy=0;exitPerimeter=0;" edge="1" parent="1" source="5G0Xq2VFd4OqwOVEKjT3-11" target="5G0Xq2VFd4OqwOVEKjT3-14">
          <mxGeometry x="0.7816" y="3" relative="1" as="geometry">
            <mxPoint x="400" y="640" as="sourcePoint" />
            <mxPoint x="450" y="660" as="targetPoint" />
            <mxPoint x="1" as="offset" />
          </mxGeometry>
        </mxCell>
        <mxCell id="07Zuo8NHtY_acnsxnfuI-7" value="" style="endArrow=open;endFill=1;endSize=12;html=1;rounded=0;exitX=0;exitY=0.5;exitDx=0;exitDy=0;entryX=1;entryY=0.5;entryDx=0;entryDy=0;" edge="1" parent="1" source="5G0Xq2VFd4OqwOVEKjT3-11" target="5G0Xq2VFd4OqwOVEKjT3-8">
          <mxGeometry width="160" relative="1" as="geometry">
            <mxPoint x="260" y="580" as="sourcePoint" />
            <mxPoint x="280" y="530" as="targetPoint" />
          </mxGeometry>
        </mxCell>
        <mxCell id="07Zuo8NHtY_acnsxnfuI-8" value="1" style="text;html=1;align=center;verticalAlign=middle;resizable=0;points=[];autosize=1;strokeColor=none;fillColor=none;" vertex="1" parent="1">
          <mxGeometry x="510" y="535" width="30" height="30" as="geometry" />
        </mxCell>
        <mxCell id="07Zuo8NHtY_acnsxnfuI-9" value="1" style="text;html=1;align=center;verticalAlign=middle;resizable=0;points=[];autosize=1;strokeColor=none;fillColor=none;" vertex="1" parent="1">
          <mxGeometry x="560" y="398" width="30" height="30" as="geometry" />
        </mxCell>
        <mxCell id="NZuYqXE5Ns-u3yznZT5t-1" value="&lt;p style=&quot;border-color: var(--border-color); margin: 0px 0px 0px 4px;&quot;&gt;&lt;b&gt;DataBase E-Commerce_Pets&lt;/b&gt;&lt;/p&gt;" style="html=1;whiteSpace=wrap;" vertex="1" parent="1">
          <mxGeometry x="65" y="110" width="200" height="60" as="geometry" />
        </mxCell>
      </root>
    </mxGraphModel>
  </diagram>
  <diagram id="L36zXFwU5kIa1jFgJ5Go" name="Casos de Uso Admin">
    <mxGraphModel dx="640" dy="270" grid="1" gridSize="10" guides="1" tooltips="1" connect="1" arrows="1" fold="1" page="1" pageScale="1" pageWidth="850" pageHeight="1100" math="0" shadow="0">
      <root>
        <mxCell id="0" />
        <mxCell id="1" parent="0" />
        <mxCell id="LAqonHbQSUjK36qoRpGB-1" value="Admin" style="shape=umlActor;verticalLabelPosition=bottom;verticalAlign=top;html=1;" vertex="1" parent="1">
          <mxGeometry x="100" y="390" width="30" height="60" as="geometry" />
        </mxCell>
        <mxCell id="LAqonHbQSUjK36qoRpGB-4" value="Login" style="ellipse;whiteSpace=wrap;html=1;" vertex="1" parent="1">
          <mxGeometry x="270" y="180" width="140" height="70" as="geometry" />
        </mxCell>
        <mxCell id="LAqonHbQSUjK36qoRpGB-5" value="Ver Pedidos" style="ellipse;whiteSpace=wrap;html=1;" vertex="1" parent="1">
          <mxGeometry x="270" y="290" width="140" height="70" as="geometry" />
        </mxCell>
        <mxCell id="LAqonHbQSUjK36qoRpGB-6" value="CRUD_Productos" style="ellipse;whiteSpace=wrap;html=1;" vertex="1" parent="1">
          <mxGeometry x="270" y="400" width="140" height="70" as="geometry" />
        </mxCell>
        <mxCell id="LAqonHbQSUjK36qoRpGB-7" value="LogOut" style="ellipse;whiteSpace=wrap;html=1;" vertex="1" parent="1">
          <mxGeometry x="270" y="500" width="140" height="70" as="geometry" />
        </mxCell>
        <mxCell id="LAqonHbQSUjK36qoRpGB-10" value="Actulizar_Atributos" style="ellipse;whiteSpace=wrap;html=1;" vertex="1" parent="1">
          <mxGeometry x="510" y="180" width="140" height="70" as="geometry" />
        </mxCell>
        <mxCell id="LAqonHbQSUjK36qoRpGB-11" value="Ver_Detalle_Factura" style="ellipse;whiteSpace=wrap;html=1;" vertex="1" parent="1">
          <mxGeometry x="510" y="290" width="140" height="70" as="geometry" />
        </mxCell>
        <mxCell id="LAqonHbQSUjK36qoRpGB-12" value="Administrar_Pedidos" style="ellipse;whiteSpace=wrap;html=1;" vertex="1" parent="1">
          <mxGeometry x="510" y="400" width="140" height="70" as="geometry" />
        </mxCell>
        <mxCell id="LAqonHbQSUjK36qoRpGB-15" value="" style="endArrow=classic;html=1;rounded=0;entryX=0;entryY=0.5;entryDx=0;entryDy=0;" edge="1" parent="1" source="LAqonHbQSUjK36qoRpGB-1" target="LAqonHbQSUjK36qoRpGB-4">
          <mxGeometry width="50" height="50" relative="1" as="geometry">
            <mxPoint x="200" y="360" as="sourcePoint" />
            <mxPoint x="250" y="310" as="targetPoint" />
          </mxGeometry>
        </mxCell>
        <mxCell id="LAqonHbQSUjK36qoRpGB-17" value="" style="endArrow=classic;html=1;rounded=0;entryX=0;entryY=0.5;entryDx=0;entryDy=0;" edge="1" parent="1" target="LAqonHbQSUjK36qoRpGB-5">
          <mxGeometry width="50" height="50" relative="1" as="geometry">
            <mxPoint x="140" y="410" as="sourcePoint" />
            <mxPoint x="190" y="380" as="targetPoint" />
          </mxGeometry>
        </mxCell>
        <mxCell id="LAqonHbQSUjK36qoRpGB-18" value="" style="endArrow=classic;html=1;rounded=0;entryX=0.002;entryY=0.453;entryDx=0;entryDy=0;entryPerimeter=0;" edge="1" parent="1" target="LAqonHbQSUjK36qoRpGB-6">
          <mxGeometry width="50" height="50" relative="1" as="geometry">
            <mxPoint x="140" y="420" as="sourcePoint" />
            <mxPoint x="260" y="430" as="targetPoint" />
          </mxGeometry>
        </mxCell>
        <mxCell id="LAqonHbQSUjK36qoRpGB-19" value="" style="endArrow=classic;html=1;rounded=0;entryX=0;entryY=0.5;entryDx=0;entryDy=0;" edge="1" parent="1" target="LAqonHbQSUjK36qoRpGB-7">
          <mxGeometry width="50" height="50" relative="1" as="geometry">
            <mxPoint x="140" y="430" as="sourcePoint" />
            <mxPoint x="250" y="310" as="targetPoint" />
            <Array as="points" />
          </mxGeometry>
        </mxCell>
        <mxCell id="LAqonHbQSUjK36qoRpGB-21" value="extend" style="endArrow=open;endSize=12;dashed=1;html=1;rounded=0;entryX=0;entryY=0.5;entryDx=0;entryDy=0;exitX=1;exitY=0.5;exitDx=0;exitDy=0;" edge="1" parent="1" source="LAqonHbQSUjK36qoRpGB-4" target="LAqonHbQSUjK36qoRpGB-10">
          <mxGeometry x="-0.0067" width="160" relative="1" as="geometry">
            <mxPoint x="420" y="215" as="sourcePoint" />
            <mxPoint x="570" y="200" as="targetPoint" />
            <mxPoint as="offset" />
          </mxGeometry>
        </mxCell>
        <mxCell id="LAqonHbQSUjK36qoRpGB-22" value="include" style="endArrow=open;endSize=12;dashed=1;html=1;rounded=0;entryX=0;entryY=0.5;entryDx=0;entryDy=0;exitX=1;exitY=0.5;exitDx=0;exitDy=0;" edge="1" parent="1">
          <mxGeometry x="-0.0118" width="160" relative="1" as="geometry">
            <mxPoint x="410" y="324.83" as="sourcePoint" />
            <mxPoint x="510" y="324.83" as="targetPoint" />
            <mxPoint as="offset" />
          </mxGeometry>
        </mxCell>
        <mxCell id="LAqonHbQSUjK36qoRpGB-23" value="extend" style="endArrow=open;endSize=12;dashed=1;html=1;rounded=0;entryX=0;entryY=0;entryDx=0;entryDy=0;exitX=1;exitY=1;exitDx=0;exitDy=0;" edge="1" parent="1" source="LAqonHbQSUjK36qoRpGB-5" target="LAqonHbQSUjK36qoRpGB-12">
          <mxGeometry x="-0.0067" width="160" relative="1" as="geometry">
            <mxPoint x="390" y="350" as="sourcePoint" />
            <mxPoint x="490" y="350" as="targetPoint" />
            <mxPoint as="offset" />
          </mxGeometry>
        </mxCell>
        <mxCell id="LAqonHbQSUjK36qoRpGB-24" value="E-Commerce - Use Cases" style="shape=umlFrame;whiteSpace=wrap;html=1;pointerEvents=0;width=160;height=30;" vertex="1" parent="1">
          <mxGeometry x="230" y="130" width="460" height="500" as="geometry" />
        </mxCell>
      </root>
    </mxGraphModel>
  </diagram>
  <diagram id="hE5JpJVM9N2iVq5y91Pg" name="Casos de uso Client">
    <mxGraphModel dx="1120" dy="472" grid="1" gridSize="10" guides="1" tooltips="1" connect="1" arrows="1" fold="1" page="1" pageScale="1" pageWidth="850" pageHeight="1100" math="0" shadow="0">
      <root>
        <mxCell id="0" />
        <mxCell id="1" parent="0" />
        <mxCell id="s9OgS145CVsGQwGXPFeB-1" value="Client" style="shape=umlActor;verticalLabelPosition=bottom;verticalAlign=top;html=1;" vertex="1" parent="1">
          <mxGeometry x="100" y="450" width="30" height="60" as="geometry" />
        </mxCell>
        <mxCell id="s9OgS145CVsGQwGXPFeB-2" value="Login" style="ellipse;whiteSpace=wrap;html=1;" vertex="1" parent="1">
          <mxGeometry x="250" y="100" width="140" height="70" as="geometry" />
        </mxCell>
        <mxCell id="s9OgS145CVsGQwGXPFeB-3" value="Hacer_Pedido" style="ellipse;whiteSpace=wrap;html=1;" vertex="1" parent="1">
          <mxGeometry x="250" y="380" width="140" height="70" as="geometry" />
        </mxCell>
        <mxCell id="s9OgS145CVsGQwGXPFeB-4" value="Ver_Historial_Pedidos" style="ellipse;whiteSpace=wrap;html=1;" vertex="1" parent="1">
          <mxGeometry x="250" y="530" width="140" height="70" as="geometry" />
        </mxCell>
        <mxCell id="s9OgS145CVsGQwGXPFeB-5" value="Buscar_Productos" style="ellipse;whiteSpace=wrap;html=1;" vertex="1" parent="1">
          <mxGeometry x="250" y="240" width="140" height="70" as="geometry" />
        </mxCell>
        <mxCell id="s9OgS145CVsGQwGXPFeB-6" value="Agregar_Producto" style="ellipse;whiteSpace=wrap;html=1;" vertex="1" parent="1">
          <mxGeometry x="520" y="240" width="140" height="70" as="geometry" />
        </mxCell>
        <mxCell id="s9OgS145CVsGQwGXPFeB-7" value="LogOut" style="ellipse;whiteSpace=wrap;html=1;" vertex="1" parent="1">
          <mxGeometry x="250" y="680" width="140" height="70" as="geometry" />
        </mxCell>
        <mxCell id="s9OgS145CVsGQwGXPFeB-8" style="edgeStyle=orthogonalEdgeStyle;rounded=0;orthogonalLoop=1;jettySize=auto;html=1;exitX=0.5;exitY=1;exitDx=0;exitDy=0;" edge="1" parent="1" source="s9OgS145CVsGQwGXPFeB-7" target="s9OgS145CVsGQwGXPFeB-7">
          <mxGeometry relative="1" as="geometry" />
        </mxCell>
        <mxCell id="s9OgS145CVsGQwGXPFeB-9" value="CRUD_Client" style="ellipse;whiteSpace=wrap;html=1;" vertex="1" parent="1">
          <mxGeometry x="520" y="100" width="140" height="70" as="geometry" />
        </mxCell>
        <mxCell id="s9OgS145CVsGQwGXPFeB-10" value="CRUD_Pedido" style="ellipse;whiteSpace=wrap;html=1;" vertex="1" parent="1">
          <mxGeometry x="520" y="380" width="140" height="70" as="geometry" />
        </mxCell>
        <mxCell id="s9OgS145CVsGQwGXPFeB-12" value="" style="endArrow=classic;html=1;rounded=0;entryX=0;entryY=0.5;entryDx=0;entryDy=0;" edge="1" parent="1" target="s9OgS145CVsGQwGXPFeB-5">
          <mxGeometry width="50" height="50" relative="1" as="geometry">
            <mxPoint x="130" y="470" as="sourcePoint" />
            <mxPoint x="180" y="420" as="targetPoint" />
          </mxGeometry>
        </mxCell>
        <mxCell id="s9OgS145CVsGQwGXPFeB-13" value="" style="endArrow=classic;html=1;rounded=0;entryX=0;entryY=0.5;entryDx=0;entryDy=0;" edge="1" parent="1" target="s9OgS145CVsGQwGXPFeB-3">
          <mxGeometry width="50" height="50" relative="1" as="geometry">
            <mxPoint x="130" y="480" as="sourcePoint" />
            <mxPoint x="180" y="430" as="targetPoint" />
          </mxGeometry>
        </mxCell>
        <mxCell id="s9OgS145CVsGQwGXPFeB-14" value="" style="endArrow=classic;html=1;rounded=0;entryX=0;entryY=0.5;entryDx=0;entryDy=0;" edge="1" parent="1" source="s9OgS145CVsGQwGXPFeB-1" target="s9OgS145CVsGQwGXPFeB-4">
          <mxGeometry width="50" height="50" relative="1" as="geometry">
            <mxPoint x="170" y="540" as="sourcePoint" />
            <mxPoint x="220" y="490" as="targetPoint" />
          </mxGeometry>
        </mxCell>
        <mxCell id="s9OgS145CVsGQwGXPFeB-15" value="" style="endArrow=classic;html=1;rounded=0;entryX=-0.014;entryY=0.314;entryDx=0;entryDy=0;entryPerimeter=0;" edge="1" parent="1" target="s9OgS145CVsGQwGXPFeB-7">
          <mxGeometry width="50" height="50" relative="1" as="geometry">
            <mxPoint x="140" y="510" as="sourcePoint" />
            <mxPoint x="140" y="540" as="targetPoint" />
          </mxGeometry>
        </mxCell>
        <mxCell id="s9OgS145CVsGQwGXPFeB-16" value="" style="endArrow=classic;html=1;rounded=0;" edge="1" parent="1" source="s9OgS145CVsGQwGXPFeB-1">
          <mxGeometry width="50" height="50" relative="1" as="geometry">
            <mxPoint x="200" y="190" as="sourcePoint" />
            <mxPoint x="250" y="140" as="targetPoint" />
          </mxGeometry>
        </mxCell>
        <mxCell id="n-SWWNv5ckWLlYTRZQbh-1" value="extend" style="endArrow=open;endSize=12;dashed=1;html=1;rounded=0;entryX=0;entryY=0.5;entryDx=0;entryDy=0;exitX=1;exitY=0.5;exitDx=0;exitDy=0;" edge="1" parent="1" source="s9OgS145CVsGQwGXPFeB-2" target="s9OgS145CVsGQwGXPFeB-9">
          <mxGeometry x="-0.0067" width="160" relative="1" as="geometry">
            <mxPoint x="410" y="215" as="sourcePoint" />
            <mxPoint x="510" y="215" as="targetPoint" />
            <mxPoint as="offset" />
          </mxGeometry>
        </mxCell>
        <mxCell id="n-SWWNv5ckWLlYTRZQbh-2" value="extend" style="endArrow=open;endSize=12;dashed=1;html=1;rounded=0;entryX=1;entryY=0.5;entryDx=0;entryDy=0;exitX=0;exitY=1;exitDx=0;exitDy=0;" edge="1" parent="1" source="s9OgS145CVsGQwGXPFeB-6" target="s9OgS145CVsGQwGXPFeB-3">
          <mxGeometry x="-0.0067" width="160" relative="1" as="geometry">
            <mxPoint x="420" y="225" as="sourcePoint" />
            <mxPoint x="520" y="225" as="targetPoint" />
            <mxPoint as="offset" />
          </mxGeometry>
        </mxCell>
        <mxCell id="O0PPw9RNaDNbTZRbRMFk-1" value="include" style="endArrow=open;endSize=12;dashed=1;html=1;rounded=0;exitX=1;exitY=0.5;exitDx=0;exitDy=0;" edge="1" parent="1" source="s9OgS145CVsGQwGXPFeB-5" target="s9OgS145CVsGQwGXPFeB-6">
          <mxGeometry x="-0.0118" width="160" relative="1" as="geometry">
            <mxPoint x="410" y="324.83" as="sourcePoint" />
            <mxPoint x="510" y="324.83" as="targetPoint" />
            <mxPoint as="offset" />
          </mxGeometry>
        </mxCell>
        <mxCell id="O0PPw9RNaDNbTZRbRMFk-2" value="include" style="endArrow=open;endSize=12;dashed=1;html=1;rounded=0;entryX=0;entryY=0.5;entryDx=0;entryDy=0;exitX=1;exitY=0.5;exitDx=0;exitDy=0;" edge="1" parent="1" source="s9OgS145CVsGQwGXPFeB-3" target="s9OgS145CVsGQwGXPFeB-10">
          <mxGeometry x="-0.0118" width="160" relative="1" as="geometry">
            <mxPoint x="420" y="334.83" as="sourcePoint" />
            <mxPoint x="520" y="334.83" as="targetPoint" />
            <mxPoint as="offset" />
          </mxGeometry>
        </mxCell>
        <mxCell id="O0PPw9RNaDNbTZRbRMFk-3" value="E-Commerce - Use Cases" style="shape=umlFrame;whiteSpace=wrap;html=1;pointerEvents=0;width=130;height=30;" vertex="1" parent="1">
          <mxGeometry x="180" y="60" width="560" height="730" as="geometry" />
        </mxCell>
      </root>
    </mxGraphModel>
  </diagram>
  <diagram id="LfU-W1elSUS6X7RloY8x" name="Paquetes">
    <mxGraphModel dx="1120" dy="472" grid="1" gridSize="10" guides="1" tooltips="1" connect="1" arrows="1" fold="1" page="1" pageScale="1" pageWidth="850" pageHeight="1100" math="0" shadow="0">
      <root>
        <mxCell id="0" />
        <mxCell id="1" parent="0" />
        <mxCell id="kCJbMyBavovucGFgKu-u-1" value="package" style="shape=folder;fontStyle=1;spacingTop=10;tabWidth=40;tabHeight=14;tabPosition=left;html=1;whiteSpace=wrap;" vertex="1" parent="1">
          <mxGeometry x="300" y="70" width="390" height="260" as="geometry" />
        </mxCell>
        <mxCell id="kCJbMyBavovucGFgKu-u-2" value="Module" style="shape=module;align=left;spacingLeft=20;align=center;verticalAlign=top;whiteSpace=wrap;html=1;" vertex="1" parent="1">
          <mxGeometry x="120" y="220" width="100" height="50" as="geometry" />
        </mxCell>
        <mxCell id="kCJbMyBavovucGFgKu-u-3" value="frame" style="shape=umlFrame;whiteSpace=wrap;html=1;pointerEvents=0;" vertex="1" parent="1">
          <mxGeometry x="50" y="20" width="740" height="540" as="geometry" />
        </mxCell>
        <mxCell id="kCJbMyBavovucGFgKu-u-4" value="&amp;laquo;interface&amp;raquo;&lt;br&gt;&lt;b&gt;Name&lt;/b&gt;" style="html=1;whiteSpace=wrap;" vertex="1" parent="1">
          <mxGeometry x="90" y="90" width="110" height="50" as="geometry" />
        </mxCell>
      </root>
    </mxGraphModel>
  </diagram>
</mxfile>
